<svg height="1280" viewBox="0 0 768 1280" width="768" xmlns="http://www.w3.org/2000/svg">
    <path d="m464 1152q0-33-23.5-56.5-23.5-23.5-56.5-23.5-33 0-56.5 23.5-23.5 23.5-23.5 56.5 0 33 23.5 56.5 23.5 23.5 56.5 23.5 33 0 56.5-23.5 23.5-23.5 23.5-56.5zm208-160v-704q0-13-9.5-22.5-9.5-9.5-22.5-9.5h-512q-13 0-22.5 9.5-9.5 9.5-9.5 22.5v704q0 13 9.5 22.5 9.5 9.5 22.5 9.5h512q13 0 22.5-9.5 9.5-9.5 9.5-22.5zm-192-848q0-16-16-16h-160q-16 0-16 16 0 16 16 16h160q16 0 16-16zm288-16v1024q0 52-38 90-38 38-90 38h-512q-52 0-90-38-38-38-38-90v-1024q0-52 38-90 38-38 90-38h512q52 0 90 38 38 38 38 90z" fill="#4a4a4a"/>
</svg>