<svg height="56.667" viewBox="0 0 34 56.667" width="34" xmlns="http://www.w3.org/2000/svg"><path d="m0 0h34v56.667h-34z" fill="#fff"/><g stroke="#aaa" stroke-opacity=".25"><path d="m12 0v56.667"/><path d="m24 0v56.667"/><path d="m0 12h34"/><path d="m0 24h34"/><path d="m0 36h34"/><path d="m0 48h34"/></g><path d="m20.542 51q0-1.461-1.041-2.501-1.04-1.041-2.501-1.041-1.461 0-2.501 1.041-1.041 1.04-1.041 2.501 0 1.461 1.041 2.501 1.04 1.041 2.501 1.041 1.461 0 2.501-1.041 1.041-1.04 1.041-2.501zm9.208-7.083v-31.167q0-.576-.421-.996-.42-.421-.996-.421h-22.666q-.576 0-.996.421-.421.42-.421.996v31.167q0 .575.421.996.42.42.996.42h22.666q.576 0 .996-.42.421-.421.421-.996zm-8.5-37.542q0-.708-.708-.708h-7.084q-.708 0-.708.708 0 .708.708.708h7.084q.708 0 .708-.708zm12.75-.708v45.333q0 2.302-1.682 3.984-1.683 1.683-3.985 1.683h-22.666q-2.302 0-3.985-1.683-1.682-1.682-1.682-3.984v-45.333q0-2.302 1.682-3.985 1.683-1.682 3.985-1.682h22.666q2.302 0 3.985 1.682 1.682 1.683 1.682 3.985z" fill="#4a4a4a"/></svg>